# xmcd
#
# Track frame offsets: 
#        150
#        10798
#        24723
#        37369
#        49665
#        61311
#        74700
#        87202
#        98972
#        110077
#        124017
#        134636
#        146844
#        156824
#        166347
#        179703
#        192954
#
# Disc length: 2721 seconds
#
# Revision: 0
# Processed by: cddbd v1.5.2PL0 Copyright (c) Steve Scherf et al.
# Submitted via: ExactAudioCopy v0.99pb5
#
DISCID=040a9f11
DTITLE=The Crickets (Doo-Wop) - Never Give Up Hope
DYEAR=1954
DGENRE=Rock and Roll
TTITLE0=Are You Looking For A Sweetheart (1954)
TTITLE1=Be Faithful (1953)
TTITLE2=Changing Partners (1953)
TTITLE3=Dreams And Wishes (1953)
TTITLE4=Fine As Wine
TTITLE5=For You I Have Eyes (1953)
TTITLE6=I'll Cry No More (1953)
TTITLE7=I'm Going To Live My Life Alone (1953)
TTITLE8=I'm Not The One You Love
TTITLE9=Just You (1954)
TTITLE10=Man From The Moon (1953)
TTITLE11=Milk And Gin (1953)
TTITLE12=My Little Baby's Shoes (1954)
TTITLE13=Never Give Up Hope (1954)
TTITLE14=When I Met You (1953)
TTITLE15=You're Mine (1953)
TTITLE16=Your Love (1953)
EXTD=
EXTT0=
EXTT1=
EXTT2=
EXTT3=
EXTT4=
EXTT5=
EXTT6=
EXTT7=
EXTT8=
EXTT9=
EXTT10=
EXTT11=
EXTT12=
EXTT13=
EXTT14=
EXTT15=
EXTT16=
PLAYORDER=
